<svg width="160" height="113" viewBox="0 0 160 113" fill="none" xmlns="http://www.w3.org/2000/svg">
<path d="M33.4668 82.4726L31.5542 83.0541V83.8571H38.0265V83.0541L36.1278 82.4726C35.9522 82.4265 35.809 82.3411 35.6981 82.2165C35.5873 82.0918 35.5318 81.9234 35.5318 81.7111V65.858H35.615L36.3218 67.9764L42.0318 83.8571H42.9327L44.3186 80.7281L48.9199 67.9625L49.6267 65.8719H49.7238V81.7942C49.7238 81.9972 49.666 82.1657 49.5505 82.2995C49.435 82.4334 49.2895 82.5234 49.1139 82.5695L47.2152 83.0541V83.8571H54.8933V83.0541L52.9945 82.5695C52.819 82.5141 52.6735 82.4241 52.558 82.2995C52.4425 82.1749 52.3847 82.0065 52.3847 81.7942V66.5226C52.3847 66.3288 52.4448 66.1649 52.5649 66.0311C52.685 65.8973 52.8282 65.8073 52.9945 65.7611L54.8933 65.2627V64.4735H48.712L43.2792 79.7589H43.196L42.3367 77.1005L37.8047 64.4735H31.5542V65.2627L33.4668 65.7611C33.6331 65.8073 33.774 65.8949 33.8895 66.0242C34.005 66.1534 34.0627 66.3195 34.0627 66.5226V81.7111C34.0627 81.9049 34.005 82.0688 33.8895 82.2026C33.774 82.3364 33.6331 82.4265 33.4668 82.4726Z" fill="#EDEDED" stroke="black" stroke-width="0.32"/>
<path d="M68.9882 81.9049V80.6865H68.7387L67.9973 81.2334C67.7062 81.4319 67.3736 81.6165 66.9994 81.7873C66.6252 81.958 66.2117 82.1034 65.759 82.2234C65.3063 82.3434 64.8166 82.4034 64.2899 82.4034C62.7192 82.4034 61.525 81.8726 60.7073 80.8111C59.8896 79.7497 59.4807 78.2128 59.4807 76.2006H68.9189L68.9605 75.9168L68.9952 75.5914L69.009 75.266L69.0159 74.9822C69.0159 74.2807 68.8935 73.5954 68.6487 72.9261C68.4038 72.257 68.0435 71.6685 67.5676 71.1608C67.0918 70.6532 66.5097 70.2448 65.8214 69.9355C65.133 69.6263 64.3453 69.4717 63.4584 69.4717C62.4513 69.4717 61.5411 69.6725 60.7281 70.074C59.915 70.4755 59.222 71.0132 58.6492 71.687C58.0763 72.3608 57.6351 73.15 57.3256 74.0546C57.0161 74.9591 56.8613 75.9145 56.8613 76.9206C56.8613 78.102 57.023 79.1428 57.3464 80.0427C57.6698 80.9427 58.1202 81.7019 58.6977 82.3203C59.2752 82.9387 59.9612 83.4049 60.7558 83.7187C61.5504 84.0325 62.4189 84.1894 63.3613 84.1894C63.9434 84.1894 64.5071 84.1225 65.0522 83.9887C65.5973 83.8549 66.1101 83.6795 66.5906 83.4626C67.071 83.2457 67.5145 83.0011 67.9211 82.7287C68.3276 82.4565 68.6833 82.1819 68.9882 81.9049Z" fill="#EDEDED" stroke="black" stroke-width="0.32"/>
<path d="M66.355 75.0791C66.355 74.4607 66.3018 73.8792 66.1956 73.3346C66.0893 72.79 65.9138 72.3147 65.6689 71.9085C65.4241 71.5024 65.1099 71.1839 64.7265 70.9532C64.3431 70.7224 63.8695 70.6071 63.3059 70.6071C62.7793 70.6071 62.3034 70.7109 61.8784 70.9186C61.4534 71.1262 61.0792 71.4239 60.7558 71.8116C60.4324 72.1993 60.1691 72.6677 59.9658 73.2169C59.7626 73.7661 59.624 74.3869 59.55 75.0791H66.355Z" fill="#121212" stroke="black" stroke-width="0.32"/>
<path d="M70.3879 70.3024V71.2162H72.647V81.2957C72.647 81.748 72.7417 82.1495 72.9311 82.5003C73.1205 82.851 73.3792 83.1441 73.7073 83.3795C74.0352 83.6149 74.4187 83.7949 74.8576 83.9195C75.2964 84.0441 75.77 84.1064 76.2782 84.1064C76.6847 84.1064 77.0843 84.0556 77.477 83.9541C77.8697 83.8525 78.23 83.7325 78.558 83.5941C78.886 83.4556 79.1747 83.3149 79.4242 83.1718L79.9924 82.8326V81.9465H79.7152L79.3688 82.0849L78.8629 82.2303L78.3016 82.3411L77.7888 82.3895C77.5578 82.3895 77.2922 82.3595 76.9919 82.2995C76.6916 82.2396 76.4052 82.1426 76.1326 82.0088C75.8601 81.8749 75.6291 81.7065 75.4396 81.5034C75.2502 81.3004 75.1555 81.0511 75.1555 80.7558V71.2162H79.8123L80.1033 69.9286H75.1555V65.8719L73.0351 66.3011L72.9242 68.1425C72.8965 68.5764 72.8202 68.9179 72.6955 69.1671C72.5708 69.4163 72.3999 69.6125 72.1827 69.7555C71.9656 69.8986 71.7069 70.0048 71.4066 70.074L70.3879 70.3024Z" fill="#EDEDED" stroke="black" stroke-width="0.32"/>
<path d="M89.8742 81.7803H89.9435C89.9435 82.2142 89.9897 82.5811 90.0821 82.881C90.1745 83.181 90.3177 83.4233 90.5117 83.6079C90.7058 83.7925 90.9483 83.9264 91.2393 84.0094C91.5304 84.0925 91.8699 84.1341 92.258 84.1341C92.489 84.1341 92.7384 84.0925 93.0064 84.0094C93.2743 83.9264 93.533 83.8248 93.7825 83.7049L94.4824 83.3241L95.0021 82.9711V82.0988H94.8358L94.5032 82.2165L94.1359 82.3272L93.7895 82.4034L93.5331 82.4311C93.3575 82.4311 93.1935 82.408 93.0411 82.3619C92.8886 82.3157 92.7592 82.2488 92.653 82.1611C92.5467 82.0734 92.4659 81.9696 92.4104 81.8496C92.355 81.7296 92.3273 81.5911 92.3273 81.4342L92.3827 74.013C92.3827 73.1454 92.2326 72.4185 91.9323 71.8324C91.632 71.2462 91.237 70.7801 90.7473 70.434C90.2576 70.0878 89.7056 69.8409 89.0911 69.6932C88.4767 69.5455 87.8646 69.4717 87.2548 69.4717C86.7281 69.4717 86.2315 69.5086 85.7649 69.5825C85.2983 69.6563 84.8594 69.7509 84.4483 69.8663C84.0371 69.9817 83.6514 70.1155 83.291 70.2678L82.2654 70.7178L82.5703 73.1131H82.9723L83.8454 72.4762C84.1872 72.227 84.5568 71.9893 84.9541 71.7631C85.3514 71.537 85.7741 71.3455 86.2223 71.1885C86.6704 71.0316 87.1254 70.9532 87.5874 70.9532C87.957 70.9532 88.285 70.9924 88.5714 71.0709C88.8578 71.1493 89.0981 71.2809 89.2921 71.4655C89.4861 71.6501 89.634 71.9016 89.7356 72.22C89.8372 72.5385 89.888 72.9377 89.888 73.4177L89.8742 75.7299L89.4653 75.7022L88.904 75.6537L88.3427 75.6052L87.9339 75.5776C87.5089 75.5776 87.0515 75.6145 86.5618 75.6883C86.0721 75.7622 85.5824 75.8752 85.0927 76.0275C84.603 76.1798 84.1318 76.3806 83.6791 76.6298C83.2263 76.879 82.8244 77.179 82.4733 77.5298C82.1222 77.8805 81.8427 78.289 81.6348 78.7551C81.427 79.2212 81.323 79.7497 81.323 80.3404C81.323 80.8388 81.4131 81.3188 81.5933 81.7803C81.7734 82.2418 82.0275 82.6457 82.3555 82.9918C82.6835 83.3379 83.0831 83.6149 83.5544 83.8225C84.0256 84.0302 84.5522 84.1341 85.1343 84.1341C85.4762 84.1341 85.8481 84.1087 86.25 84.0579C86.6519 84.0072 87.0631 83.8964 87.4835 83.7256C87.9039 83.5549 88.3196 83.3149 88.7308 83.0057C89.142 82.6964 89.5231 82.288 89.8742 81.7803Z" fill="#EDEDED" stroke="black" stroke-width="0.32"/>
<path d="M89.8741 76.6575C88.9871 76.6575 88.181 76.7106 87.4557 76.8167C86.7304 76.9229 86.1113 77.0983 85.5985 77.3429C85.0858 77.5875 84.6908 77.9128 84.4136 78.319C84.1364 78.7251 83.9978 79.2235 83.9978 79.8143C83.9978 80.3127 84.074 80.7281 84.2265 81.0604C84.3789 81.3927 84.5753 81.6603 84.8155 81.8634C85.0557 82.0665 85.3237 82.2119 85.6193 82.2995C85.915 82.3872 86.2014 82.4311 86.4786 82.4311C86.7558 82.4311 87.0538 82.4034 87.3725 82.348C87.6913 82.2926 88.0008 82.2026 88.3011 82.078C88.6014 81.9534 88.8878 81.7965 89.1604 81.6073C89.4329 81.418 89.6616 81.1896 89.8464 80.9219L89.8741 76.6575Z" fill="#121212" stroke="black" stroke-width="0.32"/>
<path d="M111.758 82.5972L110.483 83.0541V83.8572H116.193V83.0541L113.837 82.4034L115.888 76.8237H122.832L125.021 82.4588L122.638 83.0541V83.8572H129.623V83.0541L128.32 82.6111C128.154 82.5557 128.003 82.4542 127.869 82.3065C127.735 82.1588 127.636 81.9973 127.571 81.8219L120.697 64.1827H119.755L118.092 67.4087L112.534 81.808C112.469 81.9742 112.368 82.1334 112.229 82.2857C112.091 82.438 111.934 82.5418 111.758 82.5972Z" fill="#EDEDED" stroke="black" stroke-width="0.32"/>
<path d="M122.319 75.4253L120.032 69.6517L119.394 67.7826H119.297L116.415 75.4253H122.319Z" fill="#121212" stroke="black" stroke-width="0.32"/>
<path d="M131.618 82.6526L130.011 83.0818V83.8572H137.231V83.0818L135.305 82.6526C135.129 82.6157 134.986 82.5349 134.875 82.4103C134.764 82.2857 134.709 82.1219 134.709 81.9188V73.6669C134.931 73.3715 135.164 73.0969 135.409 72.8431C135.654 72.5893 135.912 72.3723 136.185 72.1924C136.458 72.0124 136.746 71.8693 137.051 71.7631C137.356 71.657 137.689 71.6039 138.049 71.6039L138.52 71.6454C138.687 71.6731 138.844 71.7147 138.992 71.7701C139.139 71.8254 139.271 71.8924 139.386 71.9708C139.502 72.0493 139.578 72.1393 139.615 72.2408L140.045 73.3623H141.14V70.0394L140.641 69.7832L140.142 69.6102L139.574 69.5063L138.895 69.4717C138.433 69.4717 138.005 69.5548 137.613 69.7209C137.22 69.8871 136.848 70.1132 136.497 70.3993C136.146 70.6855 135.815 71.027 135.506 71.4239C135.196 71.8208 134.889 72.2454 134.584 72.6977H134.529V69.5825L129.997 70.4686V71.0778L131.438 71.6454C131.688 71.7285 131.879 71.8508 132.013 72.0124C132.147 72.1739 132.214 72.3746 132.214 72.6146V81.9188C132.214 82.1126 132.159 82.2718 132.048 82.3965C131.937 82.5211 131.794 82.6064 131.618 82.6526Z" fill="#EDEDED" stroke="black" stroke-width="0.32"/>
<path d="M142.068 70.3024V71.2162H144.327V81.2957C144.327 81.748 144.422 82.1495 144.611 82.5003C144.801 82.851 145.06 83.1441 145.388 83.3795C145.716 83.6149 146.099 83.7949 146.538 83.9195C146.977 84.0441 147.45 84.1064 147.958 84.1064C148.365 84.1064 148.765 84.0556 149.157 83.9541C149.55 83.8525 149.91 83.7325 150.238 83.5941C150.566 83.4556 150.855 83.3149 151.105 83.1718L151.673 82.8326V81.9465H151.396L151.049 82.0849L150.543 82.2303L149.982 82.3411L149.469 82.3895C149.238 82.3895 148.972 82.3595 148.672 82.2995C148.372 82.2396 148.086 82.1426 147.813 82.0088C147.54 81.8749 147.309 81.7065 147.12 81.5034C146.931 81.3004 146.836 81.0511 146.836 80.7558V71.2162H151.493L151.784 69.9286H146.836V65.8719L144.715 66.3011L144.605 68.1425C144.577 68.5764 144.501 68.9179 144.376 69.1671C144.251 69.4163 144.08 69.6125 143.863 69.7555C143.646 69.8986 143.387 70.0048 143.087 70.074L142.068 70.3024Z" fill="#EDEDED" stroke="black" stroke-width="0.32"/>
<path d="M129.671 52.6019L127.104 53.2522V54.3298H137.631V53.2522L134.804 52.6019C134.569 52.5275 134.383 52.4068 134.246 52.2395C134.11 52.0723 134.042 51.8463 134.042 51.5614V42.3084L137.222 42.9401L143.788 51.9887L144.587 53.0664C144.81 53.3636 145.058 53.6083 145.331 53.8003C145.604 53.9923 145.923 54.1285 146.289 54.2091C146.655 54.2896 147.129 54.3298 147.712 54.3298H151.859V53.2522L149.479 52.639C149.318 52.6019 149.153 52.5337 148.986 52.4346C148.819 52.3355 148.657 52.2179 148.502 52.0816L148.047 51.645L147.693 51.2269L140.719 42.0297C141.339 41.881 141.993 41.6209 142.681 41.2493C143.369 40.8777 144.005 40.3946 144.587 39.8C145.17 39.2055 145.651 38.4932 146.029 37.6633C146.407 36.8334 146.596 35.8858 146.596 34.8205C146.596 34.3002 146.543 33.78 146.438 33.2597C146.332 32.7395 146.143 32.2378 145.871 31.7548C145.598 31.2717 145.232 30.8226 144.773 30.4077C144.315 29.9927 143.735 29.6304 143.034 29.3207C142.334 29.011 141.494 28.7664 140.514 28.5868C139.535 28.4072 138.394 28.3174 137.092 28.3174H127.104V29.3765L129.671 30.0454C129.894 30.1073 130.083 30.225 130.238 30.3984C130.393 30.5718 130.471 30.7948 130.471 31.0673V51.5614C130.471 51.8339 130.393 52.0599 130.238 52.2395C130.083 52.4191 129.894 52.5399 129.671 52.6019Z" fill="#EDEDED" stroke="black" stroke-width="0.32"/>
<path d="M134.042 40.8219C134.178 40.8591 134.377 40.8901 134.637 40.9149L135.465 40.9799L136.32 41.0263L137.018 41.0449C137.997 41.0449 138.85 40.8901 139.575 40.5804C140.3 40.2707 140.902 39.862 141.379 39.3541C141.856 38.8462 142.213 38.2609 142.448 37.5983C142.684 36.9356 142.802 36.245 142.802 35.5265C142.802 34.5604 142.665 33.7305 142.393 33.0368C142.12 32.3431 141.723 31.7733 141.202 31.3274C140.682 30.8815 140.04 30.5501 139.277 30.3334C138.515 30.1166 137.638 30.0082 136.646 30.0082H134.042V40.8219Z" fill="#121212" stroke="black" stroke-width="0.32"/>
<path d="M105.902 52.6019L103.335 53.2522V54.3298H124.277V47.5852H122.789L121.748 51.9144C121.698 52.125 121.611 52.2891 121.487 52.4068C121.363 52.5244 121.196 52.5833 120.985 52.5833H110.272V41.658H116.075C116.323 41.658 116.503 41.7169 116.615 41.8346C116.726 41.9522 116.813 42.1164 116.875 42.327L117.786 45.2998H119.032V36.2883H117.786L116.875 39.2798C116.813 39.478 116.726 39.6328 116.615 39.7443C116.503 39.8558 116.323 39.9115 116.075 39.9115H110.272V30.0454H119.442C119.665 30.0454 119.835 30.1073 119.953 30.2312C120.071 30.355 120.161 30.5161 120.223 30.7142L121.301 34.5604H122.808V28.3174H103.335V29.3765L105.902 30.0454C106.125 30.1073 106.314 30.225 106.469 30.3984C106.624 30.5718 106.701 30.7948 106.701 31.0673V51.5614C106.701 51.8339 106.624 52.0599 106.469 52.2395C106.314 52.4191 106.125 52.5399 105.902 52.6019Z" fill="#EDEDED" stroke="black" stroke-width="0.32"/>
<path d="M84.978 50.2236L83.7877 46.4704H82.3184L82.6345 53.2707L84.6897 53.8839C85.3779 54.0821 86.0598 54.2586 86.7356 54.4134C87.4113 54.5683 88.0685 54.6921 88.7071 54.785C89.3456 54.8779 89.9563 54.9244 90.5391 54.9244C92.275 54.9244 93.7629 54.6921 95.0028 54.2276C96.2427 53.7631 97.2594 53.1562 98.053 52.4068C98.8465 51.6574 99.4262 50.8027 99.792 49.8427C100.158 48.8827 100.341 47.9072 100.341 46.9163C100.341 45.9749 100.204 45.1573 99.9315 44.4637C99.6587 43.77 99.296 43.1723 98.8435 42.6707C98.3909 42.169 97.8794 41.7448 97.309 41.3979C96.7387 41.0511 96.1621 40.76 95.5794 40.5246C95.0462 40.3017 94.5378 40.1066 94.0542 39.9394L92.6314 39.4748L91.2551 39.0475L89.8695 38.5923C89.1503 38.3322 88.5583 38.0225 88.0933 37.6633C87.6283 37.3041 87.2594 36.9108 86.9867 36.4834C86.7139 36.0561 86.5248 35.604 86.4194 35.1271C86.314 34.6502 86.2613 34.1578 86.2613 33.6499C86.2613 33.0801 86.376 32.5475 86.6054 32.052C86.8348 31.5566 87.1634 31.1323 87.5911 30.7793C88.0189 30.4262 88.5428 30.1475 89.1627 29.9432C89.7827 29.7388 90.4895 29.6366 91.283 29.6366C91.6178 29.6366 91.9836 29.6675 92.3804 29.7295C92.7771 29.7914 93.1708 29.8781 93.5614 29.9896C93.9519 30.1011 94.3239 30.2342 94.6773 30.3891C95.0307 30.5439 95.3438 30.7142 95.6166 30.9L96.0815 31.2902C96.2551 31.4513 96.3667 31.6185 96.4163 31.7919L97.495 35.3222H98.9457V28.9677L97.2626 28.5032C96.686 28.3545 96.0877 28.2245 95.4678 28.113C94.8478 28.0015 94.2092 27.9086 93.5521 27.8343C92.8949 27.76 92.2253 27.7228 91.5434 27.7228C90.3531 27.7228 89.2402 27.9148 88.2049 28.2988C87.1696 28.6828 86.2706 29.2154 85.5081 29.8967C84.7455 30.578 84.1503 31.38 83.7226 32.3029C83.2948 33.2257 83.0809 34.2135 83.0809 35.2664C83.0809 36.79 83.4808 38.0906 84.2805 39.1683C85.0803 40.2459 86.1931 41.0759 87.619 41.658C88.0902 41.8562 88.5676 42.0266 89.0511 42.169L90.5019 42.6056L91.9619 43.0516C92.4516 43.2002 92.9445 43.3736 93.4405 43.5718C94.5068 44.0301 95.3593 44.6216 95.9978 45.3462C96.6364 46.0709 96.9557 46.9968 96.9557 48.124C96.9557 48.892 96.8255 49.5794 96.5651 50.1864C96.3047 50.7934 95.9327 51.3074 95.4492 51.7286C94.9656 52.1497 94.3766 52.4718 93.6823 52.6947C92.9879 52.9177 92.2192 53.0292 91.376 53.0292C90.9544 53.0292 90.5081 52.9797 90.0369 52.8806C89.5657 52.7815 89.0853 52.6514 88.5955 52.4904C88.1057 52.3293 87.6221 52.1342 87.1448 51.9051C86.6674 51.6759 86.2241 51.4313 85.8149 51.1712C85.6785 51.0845 85.5174 50.9451 85.3314 50.7531C85.1454 50.5611 85.0276 50.3846 84.978 50.2236Z" fill="#EDEDED" stroke="black" stroke-width="0.32"/>
<path d="M55.8088 52.639L54.0977 53.2522V54.3298H61.7604V53.2522L58.5986 52.3789L61.3512 44.891H70.6692L73.6079 52.4532L70.4089 53.2522V54.3298H79.7827V53.2522L78.0344 52.6576C77.8112 52.5833 77.6097 52.447 77.4299 52.2488C77.2502 52.0506 77.1169 51.8339 77.0301 51.5985L67.805 27.9272H66.5403L64.3084 32.2564L56.8503 51.5799C56.7635 51.8029 56.6271 52.0166 56.4411 52.221C56.2551 52.4253 56.0443 52.5647 55.8088 52.639Z" fill="#EDEDED" stroke="black" stroke-width="0.32"/>
<path d="M69.981 43.0144L66.9122 35.2664L66.0566 32.7581H65.9264L62.0579 43.0144H69.981Z" fill="#121212" stroke="black" stroke-width="0.32"/>
<path d="M34.1208 52.6019L31.5542 53.2522V54.3298H51.4364V46.5633H49.9671L48.7768 51.6728L48.6745 51.9794L48.5164 52.2767C48.4544 52.3696 48.3769 52.4439 48.2839 52.4997C48.1909 52.5554 48.0886 52.5833 47.977 52.5833H38.4916V31.0673C38.4916 30.8071 38.5722 30.5842 38.7334 30.3984C38.8946 30.2126 39.0868 30.0949 39.3099 30.0454L41.951 29.3765V28.3174H31.5542V29.3765L34.1208 30.0454C34.344 30.1073 34.5331 30.225 34.6881 30.3984C34.8431 30.5718 34.9206 30.7948 34.9206 31.0673V51.5614C34.9206 51.8339 34.8431 52.0599 34.6881 52.2395C34.5331 52.4191 34.344 52.5399 34.1208 52.6019Z" fill="#EDEDED" stroke="black" stroke-width="0.32"/>
<path d="M26.4671 55.5531L22.8632 46.8611L21.7428 47.3247L25.3467 56.0167L10.908 41.5924L10.0505 42.449L24.4892 56.8733L15.7886 53.273L15.3245 54.3923L24.0251 57.9926H3.60571V59.2041H24.0251L15.3245 62.8044L15.7886 63.9236L24.4892 60.3233L10.0505 74.7476L10.908 75.6043L25.3467 61.18L21.7428 69.8719L22.8632 70.3355L26.4671 61.6436V83.8572H27.6798V59.2041H151.784V57.9926H27.6798V28.3174H26.4671V55.5531Z" fill="#BB3F3F" stroke="black" stroke-width="0.32"/>
<path d="M97.081 66.4257C97.3397 66.5088 97.5314 66.6241 97.6561 66.7718C97.7809 66.9195 97.8432 67.1041 97.8432 67.3256V81.9188C97.8432 82.1126 97.7878 82.2718 97.6769 82.3965C97.566 82.5211 97.4228 82.6064 97.2473 82.6526L95.5149 83.0818V83.8571H102.542V83.0818L100.934 82.6526C100.768 82.6157 100.627 82.5349 100.511 82.4103C100.396 82.2857 100.338 82.1219 100.338 81.9188V64.4735L95.4733 65.2211V65.8303L97.081 66.4257Z" fill="#EDEDED" stroke="black" stroke-width="0.32"/>
</svg>
